<!-- whatsapp-roxo.svg -->
<svg xmlns="http://www.w3.org/2000/svg" viewBox="0 0 24 24" role="img" aria-label="WhatsApp" fill="none">
  <!-- Cor roxa (troque aqui se quiser) -->
  <defs>
    <style>
      .w{stroke:#5B2A86;stroke-width:1.8;stroke-linecap:round;stroke-linejoin:round}
      .f{fill:#5B2A86}
    </style>
  </defs>

  <!-- balão -->
  <path class="w" d="M20.2 12a8.2 8.2 0 0 1-12.5 7L4 20l.95-3.5A8.2 8.2 0 1 1 20.2 12Z"></path>
  <!-- telefone -->
  <path class="f" d="M16.35 14.55c-.22-.12-1.3-.64-1.5-.71-.2-.07-.35-.12-.5.12-.15.24-.58.7-.71.84-.13.14-.26.16-.48.05-.22-.12-.95-.35-1.8-1.12-.66-.59-1.1-1.31-1.23-1.53-.13-.22-.01-.34.1-.46.1-.1.22-.26.33-.39.11-.13.15-.22.22-.36.07-.14.04-.27-.01-.39-.05-.12-.5-1.2-.69-1.64-.18-.44-.36-.38-.5-.39h-.43c-.15 0-.39.06-.6.29-.2.24-.78.76-.78 1.85 0 1.1.8 2.16.92 2.31.12.15 1.58 2.41 3.83 3.38.54.23.96.36 1.29.46.54.17 1.03.15 1.42.09.43-.06 1.3-.53 1.49-1.05.18-.52.18-.96.13-1.05-.05-.09-.2-.14-.42-.26Z"></path>
</svg>
